# Blender v2.69 (sub 0) OBJ File: 'log.blend'
# www.blender.org
mtllib log.mtl
v -0.000000 -0.224572 -0.450000
v -0.000000 -0.224572 0.450000
v 0.095459 -0.264112 -0.450000
v 0.095459 -0.264112 0.450000
v 0.135000 -0.359572 -0.450000
v 0.135000 -0.359572 0.450000
v 0.095459 -0.455031 -0.450000
v 0.095459 -0.455031 0.450000
v -0.000000 -0.494572 -0.450000
v -0.000000 -0.494572 0.450000
v -0.095459 -0.455031 -0.450000
v -0.095459 -0.455031 0.450000
v -0.135000 -0.359572 -0.450000
v -0.135000 -0.359572 0.450000
v -0.095459 -0.264112 -0.450000
v -0.095459 -0.264112 0.450000
v -0.000000 -0.224572 -0.000000
v 0.095459 -0.264112 0.000000
v 0.135000 -0.359572 0.000000
v 0.095459 -0.455031 0.000000
v -0.000000 -0.494572 0.000000
v -0.095459 -0.455031 0.000000
v -0.135000 -0.359572 0.000000
v -0.095459 -0.264112 0.000000
v -0.000000 -0.224572 0.225000
v 0.095459 -0.264112 0.225000
v 0.135000 -0.359572 0.225000
v 0.095459 -0.455031 0.225000
v -0.000000 -0.494572 0.225000
v -0.095459 -0.455031 0.225000
v -0.135000 -0.359572 0.225000
v -0.095459 -0.264112 0.225000
v 0.095459 -0.264112 -0.225000
v 0.135000 -0.359572 -0.225000
v 0.095459 -0.455031 -0.225000
v -0.000000 -0.494572 -0.225000
v -0.095459 -0.455031 -0.225000
v -0.135000 -0.359572 -0.225000
v -0.095459 -0.264112 -0.225000
v -0.000000 -0.224572 -0.225000
vt 0.315625 0.222222
vt 0.315625 0.111111
vt 0.384375 0.222222
vt 0.593065 0.186242
vt 0.568202 0.213867
vt 0.593065 0.147174
vt 0.568203 0.119549
vt 0.593066 0.147174
vt 0.593066 0.186242
vt 0.384375 0.111111
vt 0.533041 0.213867
vt 0.508179 0.186242
vt 0.568202 0.119549
vt 0.533042 0.119549
vt 0.508179 0.147174
vt 0.568203 0.213867
vt 0.533042 0.213867
vn 0.382683 0.923880 0.000000
vn 0.923880 0.382683 0.000000
vn 0.923880 -0.382683 0.000000
vn 0.382683 -0.923880 0.000000
vn -0.382683 -0.923880 0.000000
vn -0.923879 -0.382684 0.000000
vn 0.000001 0.000001 1.000000
vn -0.382683 0.923880 0.000000
vn -0.923880 0.382683 0.000000
vn 0.000002 -0.000000 -1.000000
vn -0.923880 -0.382683 0.000000
vn 0.923879 -0.382683 0.000000
vn -0.923879 -0.382683 0.000000
vn -0.000002 0.000001 1.000000
vn 0.000000 0.000000 1.000000
vn 0.000001 -0.000000 1.000000
vn -0.000001 0.000001 1.000000
vn -0.000001 0.000000 -1.000000
vn 0.000000 -0.000001 -1.000000
vn 0.000000 -0.000000 -1.000000
vn -0.000001 -0.000001 -1.000000
usemtl None
s off
f 25/1/1 2/2/1 26/3/1
f 26/1/2 4/2/2 27/3/2
f 27/1/3 6/2/3 28/3/3
f 28/1/4 8/2/4 29/3/4
f 29/1/5 10/2/5 30/3/5
f 30/1/6 12/2/6 31/3/6
f 4/4/7 2/5/7 6/6/7
f 32/1/8 16/2/8 25/3/8
f 31/1/9 14/2/9 32/3/9
f 1/7/10 3/8/10 5/9/10
f 40/1/1 17/2/1 33/3/1
f 33/1/2 18/2/2 34/3/2
f 34/1/3 19/2/3 35/3/3
f 35/1/4 20/2/4 36/3/4
f 36/1/5 21/2/5 37/3/5
f 37/1/11 22/2/11 38/3/11
f 39/1/8 24/2/8 40/3/8
f 38/1/9 23/2/9 39/3/9
f 17/1/1 25/2/1 18/3/1
f 18/1/2 26/2/2 19/3/2
f 19/1/12 27/2/12 20/3/12
f 20/1/4 28/2/4 21/3/4
f 21/1/5 29/2/5 22/3/5
f 22/1/13 30/2/13 23/3/13
f 24/1/8 32/2/8 17/3/8
f 23/1/9 31/2/9 24/3/9
f 1/1/1 40/2/1 3/3/1
f 3/1/2 33/2/2 5/3/2
f 5/1/3 34/2/3 7/3/3
f 7/1/4 35/2/4 9/3/4
f 9/1/5 36/2/5 11/3/5
f 11/1/11 37/2/11 13/3/11
f 15/1/8 39/2/8 1/3/8
f 13/1/9 38/2/9 15/3/9
f 2/2/1 4/10/1 26/3/1
f 4/2/2 6/10/2 27/3/2
f 6/2/3 8/10/3 28/3/3
f 8/2/4 10/10/4 29/3/4
f 10/2/5 12/10/5 30/3/5
f 12/2/11 14/10/11 31/3/11
f 2/5/14 16/11/14 14/12/14
f 6/6/15 2/5/15 14/12/15
f 8/13/16 6/6/16 10/14/16
f 6/6/15 14/12/15 12/15/15
f 10/14/17 6/6/17 12/15/17
f 16/2/8 2/10/8 25/3/8
f 14/2/9 16/10/9 32/3/9
f 15/14/18 1/7/18 13/15/18
f 1/7/19 5/9/19 13/15/19
f 5/9/20 7/16/20 13/15/20
f 7/16/20 9/17/20 13/15/20
f 9/17/21 11/12/21 13/15/21
f 17/2/1 18/10/1 33/3/1
f 18/2/2 19/10/2 34/3/2
f 19/2/3 20/10/3 35/3/3
f 20/2/4 21/10/4 36/3/4
f 21/2/5 22/10/5 37/3/5
f 22/2/11 23/10/11 38/3/11
f 24/2/8 17/10/8 40/3/8
f 23/2/9 24/10/9 39/3/9
f 25/2/1 26/10/1 18/3/1
f 26/2/2 27/10/2 19/3/2
f 27/2/3 28/10/3 20/3/3
f 28/2/4 29/10/4 21/3/4
f 29/2/5 30/10/5 22/3/5
f 30/2/11 31/10/11 23/3/11
f 32/2/8 25/10/8 17/3/8
f 31/2/9 32/10/9 24/3/9
f 40/2/1 33/10/1 3/3/1
f 33/2/2 34/10/2 5/3/2
f 34/2/3 35/10/3 7/3/3
f 35/2/4 36/10/4 9/3/4
f 36/2/5 37/10/5 11/3/5
f 37/2/11 38/10/11 13/3/11
f 39/2/8 40/10/8 1/3/8
f 38/2/9 39/10/9 15/3/9
